<?xml version="1.0" standalone="no"?>
<!DOCTYPE svg PUBLIC "-//W3C//DTD SVG 20010904//EN"
 "http://www.w3.org/TR/2001/REC-SVG-20010904/DTD/svg10.dtd">
<svg version="1.0" xmlns="http://www.w3.org/2000/svg"
 width="1024.000000pt" height="1024.000000pt" viewBox="0 0 1024.000000 1024.000000"
 preserveAspectRatio="xMidYMid meet">
<metadata>
Created by potrace 1.11, written by Peter Selinger 2001-2013
</metadata>
<g transform="translate(0.000000,1024.000000) scale(0.100000,-0.100000)"
fill="#000000" stroke="none">
<path d="M2939 10176 c-2 -2 -31 -7 -63 -11 -60 -6 -182 -42 -246 -72 -106
-48 -203 -127 -415 -337 -1139 -1126 -1975 -1961 -2010 -2006 -78 -102 -151
-258 -170 -365 -12 -69 -14 -278 -4 -335 23 -121 75 -243 152 -360 16 -25 215
-229 441 -453 226 -225 540 -537 698 -694 l286 -286 166 164 c91 90 166 166
166 170 0 5 -228 233 -1016 1016 -371 369 -390 392 -417 509 -22 92 -12 180
30 273 27 60 -33 -1 1623 1644 320 318 600 589 622 603 69 44 146 66 228 65
112 0 173 -20 255 -82 28 -20 253 -238 500 -484 248 -245 724 -717 1058 -1048
335 -331 621 -622 638 -646 87 -132 95 -305 19 -438 -16 -28 -72 -95 -125
-149 -52 -54 -95 -101 -95 -104 0 -5 249 -256 326 -329 10 -10 236 231 278
296 94 145 136 283 142 463 3 97 -1 144 -15 210 -23 101 -73 224 -126 306 -57
89 -2224 2245 -2326 2315 -113 76 -199 114 -326 144 -60 14 -265 30 -274 21z"/>
<path d="M7075 10163 c-138 -23 -243 -65 -360 -141 -48 -32 -192 -167 -455
-428 -212 -210 -524 -519 -693 -687 l-308 -305 168 -166 168 -166 90 89 c49
49 352 349 673 667 327 324 606 593 635 612 140 89 322 86 465 -7 26 -17 79
-63 119 -103 39 -40 392 -390 783 -778 1214 -1202 1286 -1274 1313 -1315 86
-133 87 -318 3 -449 -18 -28 -214 -231 -436 -451 -821 -814 -966 -958 -1352
-1342 -241 -239 -414 -403 -444 -421 -65 -38 -133 -58 -210 -61 -132 -5 -227
40 -369 174 l-99 95 -44 -42 c-24 -24 -100 -98 -168 -165 l-123 -123 97 -96
c113 -113 191 -173 282 -219 189 -94 361 -118 590 -81 94 15 232 73 335 141
66 44 48 27 1090 1060 1182 1172 1160 1149 1204 1206 77 97 130 208 167 349
17 70 24 252 11 330 -25 157 -87 300 -181 420 -54 68 -2201 2192 -2266 2241
-97 74 -255 140 -390 164 -70 13 -217 12 -295 -2z"/>
<path d="M4539 7891 c-53 -53 -117 -125 -142 -160 -168 -228 -216 -536 -126
-804 28 -82 73 -170 124 -242 41 -56 386 -405 1030 -1040 154 -152 305 -301
336 -331 l56 -55 168 167 169 166 -379 375 c-752 742 -992 985 -1015 1026 -74
137 -77 275 -9 409 19 38 63 91 130 158 l101 101 -168 165 c-93 90 -171 163
-174 163 -3 -1 -48 -45 -101 -98z"/>
<path d="M3980 5489 c-360 -357 -679 -669 -709 -692 -105 -81 -256 -108 -381
-66 -99 32 -116 44 -227 152 l-104 101 -85 -85 c-47 -46 -123 -121 -169 -166
l-82 -82 112 -110 c157 -154 275 -227 438 -271 259 -70 530 -26 748 120 66 45
103 81 949 919 l505 501 -165 164 c-91 91 -167 165 -170 165 -3 0 -300 -292
-660 -650z"/>
<path d="M2885 6015 c-145 -28 -245 -69 -363 -149 -81 -54 -75 -48 -1385
-1349 -997 -989 -982 -972 -1052 -1181 -32 -96 -40 -162 -38 -311 2 -178 48
-320 156 -480 22 -33 154 -172 293 -310 1517 -1505 1936 -1919 1979 -1953 123
-97 279 -163 445 -187 80 -12 229 -7 290 10 8 2 30 7 47 10 77 13 232 86 317
150 61 45 1416 1382 1416 1396 0 13 -322 330 -331 327 -4 -2 -309 -302 -678
-667 -369 -365 -687 -675 -707 -689 -60 -40 -142 -65 -227 -67 -138 -5 -223
34 -352 159 -100 97 -1694 1678 -1951 1935 -174 173 -207 226 -222 350 -14
121 30 255 112 341 28 30 1050 1043 1861 1845 138 136 266 259 285 274 91 70
215 100 333 79 96 -17 168 -60 277 -168 l102 -100 164 162 c90 89 164 167 164
173 0 10 -156 166 -210 210 -98 80 -261 159 -370 180 -3 0 -23 5 -45 9 -63 13
-244 14 -310 1z"/>
<path d="M7167 6004 c-1 -1 -24 -5 -52 -8 -92 -10 -209 -46 -302 -92 -51 -26
-100 -54 -110 -63 -10 -9 -29 -24 -43 -34 -31 -22 -1390 -1367 -1390 -1377 0
-9 319 -325 329 -325 5 0 310 298 678 663 368 364 684 673 703 687 80 59 225
88 330 66 91 -19 157 -59 267 -165 l104 -99 61 59 c33 32 109 107 168 166
l107 108 -112 109 c-172 168 -313 248 -500 285 -67 13 -230 27 -238 20z"/>
<path d="M4272 4836 l-167 -166 335 -330 c785 -776 1032 -1026 1060 -1076 53
-91 68 -211 40 -315 -22 -82 -60 -139 -160 -241 -55 -55 -100 -104 -100 -107
0 -3 75 -79 167 -168 l166 -162 102 102 c184 186 253 301 296 500 47 213 11
439 -99 632 -63 108 -9 53 -933 970 -283 281 -520 514 -527 519 -8 5 -68 -47
-180 -158z"/>
<path d="M8461 4814 c-148 -147 -163 -165 -150 -180 8 -10 194 -196 414 -415
220 -218 522 -518 670 -666 291 -288 315 -320 340 -438 21 -102 3 -209 -51
-301 -22 -37 -216 -233 -1010 -1020 -155 -154 -484 -480 -731 -725 -320 -317
-466 -455 -506 -478 -105 -60 -239 -71 -356 -30 -102 35 27 -88 -1411 1339
-474 470 -875 874 -892 898 -45 66 -69 146 -69 232 0 92 3 107 40 186 23 48
56 90 133 169 l103 104 -168 167 -168 166 -103 -103 c-166 -167 -239 -282
-287 -454 -19 -65 -23 -106 -24 -220 0 -77 4 -159 8 -182 20 -108 89 -263 157
-357 42 -56 49 -64 969 -976 1372 -1360 1284 -1276 1400 -1344 222 -130 499
-158 747 -75 159 53 256 122 478 341 663 657 1826 1810 1909 1893 115 114 175
192 222 285 26 52 66 154 70 180 43 251 26 423 -57 599 -59 125 -118 193 -472
544 -193 192 -504 501 -691 688 -188 186 -343 338 -345 338 -3 -1 -79 -75
-169 -165z"/>
</g>
</svg>
